<svg width="40" height="45" viewBox="0 0 40 45" fill="none" xmlns="http://www.w3.org/2000/svg">
<rect width="40" height="44.4444" fill="white"/>
<path d="M27.9829 16.2978C27.9829 13.9399 27.1435 11.6786 25.6429 10.0113C24.1424 8.34402 22.1072 7.40735 19.9851 7.40735C17.863 7.40735 15.8278 8.34402 14.3272 10.0113C12.8266 11.6786 11.9836 13.9399 11.9836 16.2978C11.9836 24.074 5.75022 25.3959 7.98294 28.7036C10.2157 32.0114 29.6496 32.4073 32.1496 28.7036C34.3246 25.4814 27.9829 24.074 27.9829 16.2978Z" fill="#FF5C17"/>
<path d="M22.2921 35.5605C22.0577 36.0096 21.7212 36.3823 21.3163 36.6415C20.9114 36.9006 20.4523 37.037 19.9851 37.037C19.5178 37.037 19.0588 36.9006 18.6539 36.6415C18.249 36.3823 17.9124 36.0096 17.678 35.5605" fill="#FF5C17"/>
<path d="M22.2921 35.5605C22.0577 36.0096 21.7212 36.3823 21.3163 36.6415C20.9114 36.9006 20.4523 37.037 19.9851 37.037C19.5178 37.037 19.0588 36.9006 18.6539 36.6415C18.249 36.3823 17.9124 36.0096 17.678 35.5605M27.9829 16.2978C27.9829 13.9399 27.1435 11.6786 25.6429 10.0113C24.1424 8.34402 22.1072 7.40735 19.9851 7.40735C17.863 7.40735 15.8278 8.34402 14.3272 10.0113C12.8266 11.6786 11.9836 13.9399 11.9836 16.2978C11.9836 24.074 5.75022 25.3959 7.98294 28.7036C10.2157 32.0114 29.6496 32.4073 32.1496 28.7036C34.3246 25.4814 27.9829 24.074 27.9829 16.2978Z" stroke="#FF5C17" stroke-width="1.5" stroke-linecap="round" stroke-linejoin="round"/>
</svg>
