<svg width="19" height="23" viewBox="0 0 19 23" fill="none" xmlns="http://www.w3.org/2000/svg">
<path d="M1.50002 19.375H2.25002H1.50002ZM17.5 22V22.75C17.8044 22.75 18.0786 22.566 18.194 22.2843C18.3094 22.0026 18.243 21.6791 18.0261 21.4655L17.5 22ZM18.25 8.61885C18.25 8.20463 17.9142 7.86885 17.5 7.86884C17.0858 7.86884 16.75 8.20463 16.75 8.61884L18.25 8.61885ZM1.5 4.93751L2.25 4.93751V4.93751L1.5 4.93751ZM2.25002 19.375C2.25002 18.9816 2.38504 18.7009 2.75835 18.3334L1.70608 17.2644C1.14171 17.82 0.750016 18.4631 0.750016 19.375H2.25002ZM2.75835 18.3334C2.96732 18.1277 3.36892 17.6984 4.32808 17.3025C5.30719 16.8983 6.90477 16.5156 9.49997 16.5156V15.0156C6.76185 15.0156 4.95997 15.4188 3.75574 15.9159C2.53156 16.4213 1.96595 17.0086 1.70608 17.2644L2.75835 18.3334ZM17.5 21.25H3.99998V22.75H17.5V21.25ZM3.99998 21.25C3.53207 21.25 3.08567 21.0669 2.75835 20.7447L1.70608 21.8137C2.31644 22.4145 3.1418 22.75 3.99998 22.75V21.25ZM2.75835 20.7447C2.46401 20.455 2.25002 19.8753 2.25002 19.375H0.750016C0.750016 20.18 1.06273 21.1804 1.70608 21.8137L2.75835 20.7447ZM9.49997 16.5156C12.1202 16.5156 14.0746 16.7574 15.3638 16.9954C16.0085 17.1143 16.4872 17.2324 16.7998 17.319C16.9562 17.3623 17.071 17.3977 17.1444 17.4214C17.1811 17.4332 17.2075 17.4422 17.2234 17.4477C17.2314 17.4505 17.2368 17.4524 17.2396 17.4534C17.241 17.4539 17.2418 17.4542 17.2419 17.4542C17.2419 17.4542 17.2418 17.4542 17.2415 17.4541C17.2414 17.454 17.2412 17.454 17.241 17.4539C17.2409 17.4538 17.2407 17.4538 17.2407 17.4537C17.2404 17.4537 17.2402 17.4536 17.5 16.75C17.7597 16.0464 17.7595 16.0463 17.7592 16.0462C17.7591 16.0462 17.7589 16.0461 17.7587 16.046C17.7583 16.0459 17.7579 16.0457 17.7574 16.0456C17.7565 16.0452 17.7554 16.0448 17.7542 16.0444C17.7517 16.0435 17.7485 16.0423 17.7447 16.041C17.7371 16.0382 17.7268 16.0346 17.714 16.0302C17.6883 16.0213 17.6521 16.0091 17.6055 15.994C17.5122 15.9639 17.3771 15.9224 17.2001 15.8734C16.8461 15.7754 16.3247 15.6474 15.6361 15.5203C14.2586 15.266 12.2131 15.0156 9.49997 15.0156V16.5156ZM15.4166 19.375C15.4166 20.2602 15.8541 21.0713 16.2123 21.6003C16.3999 21.8772 16.5863 22.1065 16.726 22.2669C16.7962 22.3475 16.8555 22.4118 16.8984 22.4571C16.9199 22.4797 16.9374 22.4977 16.9502 22.5107C16.9565 22.5172 16.9618 22.5225 16.9657 22.5265C16.9677 22.5284 16.9694 22.5301 16.9707 22.5314C16.9714 22.5321 16.972 22.5327 16.9725 22.5332C16.9728 22.5335 16.973 22.5337 16.9732 22.5339C16.9733 22.534 16.9735 22.5342 16.9735 22.5342C16.9737 22.5344 16.9738 22.5345 17.5 22C18.0261 21.4655 18.0262 21.4656 18.0263 21.4658C18.0264 21.4658 18.0265 21.4659 18.0266 21.466C18.0267 21.4661 18.0268 21.4662 18.0269 21.4663C18.0271 21.4665 18.0272 21.4666 18.0272 21.4666C18.0273 21.4667 18.0271 21.4665 18.0265 21.4659C18.0255 21.4649 18.0232 21.4626 18.0198 21.4591C18.0131 21.4523 18.0019 21.4408 17.9869 21.425C17.9569 21.3934 17.9121 21.3449 17.8573 21.2819C17.7469 21.1552 17.6 20.9743 17.4543 20.7591C17.1458 20.3037 16.9166 19.8023 16.9166 19.375H15.4166ZM16.75 16.7502C16.7499 16.5753 16.8135 16.4512 16.8214 16.4349C16.8403 16.396 16.8576 16.3701 16.862 16.3636C16.8716 16.3493 16.8745 16.3467 16.8594 16.3655C16.8296 16.4024 16.7888 16.4497 16.7185 16.533C16.5887 16.6867 16.4041 16.9099 16.2173 17.1791C15.8592 17.6947 15.4166 18.4842 15.4166 19.375H16.9166C16.9166 18.9533 17.1408 18.479 17.4493 18.0346C17.5958 17.8237 17.7446 17.6429 17.8648 17.5004C17.9195 17.4356 17.9829 17.3617 18.026 17.3083C18.0473 17.282 18.0789 17.2421 18.108 17.1986C18.1221 17.1776 18.147 17.1391 18.1709 17.0899C18.1838 17.0631 18.25 16.9308 18.25 16.7498L16.75 16.7502ZM18.25 16.75C18.25 15.1712 18.25 13.1206 18.25 11.4936C18.25 11.3912 18.25 11.4431 18.25 11.3415C18.25 11.3345 18.25 11.2731 18.25 11.2663C18.25 11.2601 18.25 11.2538 18.25 11.2476C18.25 11.2414 18.25 11.2352 18.25 11.229C18.25 11.2227 18.25 11.2165 18.25 11.2103C18.25 11.2042 18.25 11.198 18.25 11.1918C18.25 11.0911 18.25 11.1445 18.25 11.0447C18.25 11.0068 18.25 11.0099 18.25 10.9722C18.25 10.9662 18.25 10.9602 18.25 10.9542C18.25 10.9482 18.25 10.9422 18.25 10.9362C18.25 10.9265 18.25 10.9102 18.25 10.9004C18.25 10.71 18.25 10.5274 18.25 10.3543C18.25 10.2883 18.25 10.3556 18.25 10.2899C18.25 10.2685 18.25 10.2473 18.25 10.2263C18.25 10.2171 18.25 10.1099 18.25 10.102C18.25 9.96564 18.25 9.99616 18.25 9.86516C18.25 9.85561 18.25 9.84616 18.25 9.8367C18.25 9.79441 18.25 9.8507 18.25 9.80851C18.25 9.76612 18.25 9.82287 18.25 9.78058C18.25 9.7788 18.25 9.7546 18.25 9.75292C18.25 9.7353 18.25 9.74306 18.25 9.72553C18.25 9.71298 18.25 9.71087 18.25 9.69841C18.25 9.69392 18.25 9.68943 18.25 9.68496C18.25 9.68048 18.25 9.67602 18.25 9.67157C18.25 9.66712 18.25 9.66268 18.25 9.65825C18.25 9.65383 18.25 9.64941 18.25 9.64501C18.25 9.62312 18.25 9.64052 18.25 9.61873C18.25 9.61437 18.25 9.61002 18.25 9.60569C18.25 9.60136 18.25 9.59704 18.25 9.59273C18.25 9.58842 18.25 9.58412 18.25 9.57983C18.25 9.57555 18.25 9.57127 18.25 9.56701C18.25 9.56275 18.25 9.5585 18.25 9.55426C18.25 9.55002 18.25 9.5458 18.25 9.54158C18.25 9.53716 18.25 9.49563 18.25 9.4916C18.25 9.48748 18.25 9.48338 18.25 9.47929C18.25 9.4752 18.25 9.47112 18.25 9.46705C18.25 9.46298 18.25 9.45893 18.25 9.45489C18.25 9.45084 18.25 9.44681 18.25 9.4428C18.25 9.24107 18.25 8.92432 18.25 8.83799C18.25 8.80162 18.25 8.67786 18.25 8.67528C18.25 8.65779 18.25 8.66607 18.25 8.65082C18.25 8.64564 18.25 8.64575 18.25 8.64113C18.25 8.64039 18.25 8.63968 18.25 8.63898C18.25 8.63828 18.25 8.63759 18.25 8.63693C18.25 8.63627 18.25 8.63562 18.25 8.63499C18.25 8.63436 18.25 8.63375 18.25 8.63316C18.25 8.61899 18.25 8.63428 18.25 8.62245C18.25 8.62038 18.25 8.62123 18.25 8.61975C18.25 8.61932 18.25 8.61935 18.25 8.61907C18.25 8.619 18.25 8.61894 18.25 8.6189C18.25 8.61887 18.25 8.61885 17.5 8.61884C16.75 8.61884 16.75 8.61886 16.75 8.6189C16.75 8.61893 16.75 8.61899 16.75 8.61907C16.75 8.61914 16.75 8.61924 16.75 8.61935C16.75 8.61946 16.75 8.61959 16.75 8.61974C16.75 8.62122 16.75 8.62037 16.75 8.62244C16.75 8.62955 16.75 8.62371 16.75 8.63315C16.75 8.63893 16.75 8.63477 16.75 8.64112C16.75 8.64572 16.75 8.64564 16.75 8.65081C16.75 8.6597 16.75 8.65275 16.75 8.6622C16.75 8.66322 16.75 8.66426 16.75 8.66531C16.75 8.66637 16.75 8.66744 16.75 8.66853C16.75 8.67489 16.75 8.66877 16.75 8.67527C16.75 8.74683 16.75 8.73264 16.75 8.83798C16.75 8.92431 16.75 9.24106 16.75 9.44279C16.75 9.93545 16.75 10.6973 16.75 11.4936C16.75 13.1206 16.75 15.1712 16.75 16.75L18.25 16.75ZM16.75 4.9375V8.875H18.25V4.9375H16.75ZM18.25 4.9375C18.25 2.33758 16.1121 0.25 13.5 0.25V1.75C15.3061 1.75 16.75 3.18818 16.75 4.9375H18.25ZM2.25 4.93751C2.25 3.18819 3.69389 1.75 5.5 1.75V0.25C2.88782 0.25 0.749996 2.33758 0.75 4.93751L2.25 4.93751ZM2.25002 19.375L2.25 4.93751L0.75 4.93751L0.750016 19.375L2.25002 19.375ZM5.5 1.75H13.5V0.25H5.5V1.75Z" fill="#FF5C17"/>
</svg>
