<svg width="21" height="22" viewBox="0 0 21 22" fill="none" xmlns="http://www.w3.org/2000/svg">
<path d="M12.0941 20.0034C11.9183 20.3065 11.6659 20.5581 11.3622 20.733C11.0585 20.9079 10.7142 21 10.3638 21C10.0134 21 9.66907 20.9079 9.3654 20.733C9.06173 20.5581 8.80934 20.3065 8.63349 20.0034M16.3622 7.00106C16.3622 5.40948 15.7326 3.88309 14.6072 2.75767C13.4818 1.63225 11.9554 1 10.3638 1C8.77222 1 7.24582 1.63225 6.1204 2.75767C4.99499 3.88309 4.36273 5.40948 4.36273 7.00106C4.36273 12.25 -0.312338 13.1423 1.3622 15.375C3.03674 17.6077 17.6122 17.875 19.4872 15.375C21.1185 13.2 16.3622 12.25 16.3622 7.00106Z" stroke="#FF5C17" stroke-width="1.5" stroke-linecap="round" stroke-linejoin="round"/>
</svg>
