<svg width="40" height="45" viewBox="0 0 40 45" fill="none" xmlns="http://www.w3.org/2000/svg">
<rect width="40" height="44.4444" fill="white"/>
<path d="M22.2921 35.5605C22.0577 36.0096 21.7212 36.3824 21.3163 36.6415C20.9114 36.9006 20.4523 37.037 19.9851 37.037C19.5178 37.037 19.0588 36.9006 18.6539 36.6415C18.249 36.3824 17.9124 36.0096 17.678 35.5605M27.9829 16.2979C27.9829 13.94 27.1435 11.6787 25.6429 10.0114C24.1424 8.34408 22.1072 7.40741 19.9851 7.40741C17.863 7.40741 15.8278 8.34408 14.3272 10.0114C12.8266 11.6787 11.9836 13.94 11.9836 16.2979C11.9836 24.0741 5.75022 25.396 7.98294 28.7037C10.2157 32.0115 29.6496 32.4074 32.1496 28.7037C34.3246 25.4815 27.9829 24.0741 27.9829 16.2979Z" stroke="#131214" stroke-width="1.5" stroke-linecap="round" stroke-linejoin="round"/>
</svg>
