<svg width="50" height="50" viewBox="0 0 50 50" fill="none" xmlns="http://www.w3.org/2000/svg">
<path d="M50 25C50 38.8071 38.8071 50 25 50C11.1929 50 0 38.8071 0 25C0 11.1929 11.1929 0 25 0C38.8071 0 50 11.1929 50 25Z" fill="#E8E8E8"/>
<path fill-rule="evenodd" clip-rule="evenodd" d="M10.1377 45.1044C11.3156 43.0355 12.8194 41.2151 14.586 39.7429C17.6438 37.1948 21.3309 35.8218 25.1158 35.8218C28.9007 35.8218 32.5878 37.1948 35.6458 39.7429C37.3777 41.1863 38.8572 42.9645 40.0245 44.9835C35.842 48.133 30.6391 50 25.0001 50C19.4337 50 14.2922 48.1808 10.1377 45.1044ZM25.1158 32.9861C29.8141 32.9861 33.6228 29.1774 33.6228 24.4792C33.6228 19.7809 29.8141 15.9722 25.1158 15.9722C20.4176 15.9722 16.6089 19.7809 16.6089 24.4792C16.6089 29.1774 20.4176 32.9861 25.1158 32.9861Z" fill="white"/>
</svg>
