<!-- 돋보기 모양 / 경험 추출 선택 페이지의 미리보기 버튼 -->
<svg xmlns="http://www.w3.org/2000/svg" width="34" height="34" viewBox="0 0 34 34" fill="none">
  <circle cx="17" cy="17" r="17" fill="#E8E8E8" fill-opacity="0.5"/>
  <path d="M16.2222 22.4444C19.6587 22.4444 22.4445 19.6587 22.4445 16.2222C22.4445 12.7858 19.6587 10 16.2222 10C12.7858 10 10 12.7858 10 16.2222C10 19.6587 12.7858 22.4444 16.2222 22.4444Z" fill="#E8E8E8" fill-opacity="0.5"/>
  <path d="M24 24L20.6167 20.6167M22.4445 16.2222C22.4445 19.6587 19.6587 22.4444 16.2222 22.4444C12.7858 22.4444 10 19.6587 10 16.2222C10 12.7858 12.7858 10 16.2222 10C19.6587 10 22.4445 12.7858 22.4445 16.2222Z" stroke="#131214" stroke-width="1.5" stroke-linecap="round" stroke-linejoin="round"/>
</svg>
