<svg width="20" height="20" viewBox="0 0 20 20" fill="none" xmlns="http://www.w3.org/2000/svg">
<path d="M7.23278 17.2555L1 19L2.74518 12.7697L14.1581 1.41657C14.287 1.2847 14.4412 1.17992 14.6112 1.10838C14.7812 1.03685 14.9639 1 15.1484 1C15.3329 1 15.5156 1.03685 15.6857 1.10838C15.8556 1.17992 16.0098 1.2847 16.1387 1.41657L18.5903 3.88102C18.7201 4.00973 18.8231 4.16287 18.8935 4.33157C18.9638 4.50029 19 4.68126 19 4.86403C19 5.0468 18.9638 5.22778 18.8935 5.39649C18.8231 5.56521 18.7201 5.71834 18.5903 5.84705L7.23278 17.2555Z" stroke="#A0A0A0" stroke-width="2" stroke-linecap="round" stroke-linejoin="round"/>
</svg>
