<svg xmlns="http://www.w3.org/2000/svg" viewBox="0 0 64 64" id="empty-folder">
  <path fill="#8c8c8c" d="m47,24h-25.06c-.3,0-.58-.13-.77-.36l-3.8-4.56c-.57-.69-1.41-1.08-2.3-1.08H5c-1.65,0-3,1.35-3,3v40c0,.34.18.66.47.85.16.1.35.15.53.15.15,0,.29-.03.43-.1l46-22c.35-.17.57-.52.57-.9v-12c0-1.65-1.35-3-3-3Z"></path>
  <path fill="#bfbfbf" d="m61.72,38.97c-.36-.61-1-.97-1.71-.97H15.52c-.73,0-1.4.4-1.75,1.05L2.12,60.52c-.17.31-.16.69.02.99s.51.49.86.49h44.97c1.46,0,2.8-.8,3.5-2.09l10.28-18.96c.34-.63.33-1.37-.04-1.98Z"></path>
  <path fill="#595959" d="M28 52h-11c-.55 0-1-.45-1-1s.45-1 1-1h11c.55 0 1 .45 1 1s-.45 1-1 1zM32 57H14c-.55 0-1-.45-1-1s.45-1 1-1h18c.55 0 1 .45 1 1s-.45 1-1 1z"></path>
  <path fill="#f2f2f2" d="m40,2c-7.72,0-14,6.28-14,14,0,6.5,4.52,12.17,10.81,13.63l2.33,3.88c.18.3.51.49.86.49s.68-.18.86-.49l2.33-3.88c6.29-1.46,10.81-7.13,10.81-13.63,0-7.72-6.28-14-14-14Z"></path>
  <path fill="#595959" d="m45.71,10.29c-.39-.39-1.02-.39-1.41,0l-4.29,4.29-4.29-4.29c-.39-.39-1.02-.39-1.41,0s-.39,1.02,0,1.41l4.29,4.29-4.29,4.29c-.39.39-.39,1.02,0,1.41.2.2.45.29.71.29s.51-.1.71-.29l4.29-4.29,4.29,4.29c.2.2.45.29.71.29s.51-.1.71-.29c.39-.39.39-1.02,0-1.41l-4.29-4.29,4.29-4.29c.39-.39.39-1.02,0-1.41Z"></path>
</svg>
