<svg width="132" height="107" viewBox="0 0 132 107" fill="none" xmlns="http://www.w3.org/2000/svg">
<path d="M65.0705 44.6874L57.6374 75.1767C57.3615 76.3074 57.311 77.4813 57.4889 78.6315C57.6667 79.7817 58.0695 80.8855 58.6741 81.88C59.2788 82.8745 60.0734 83.7401 61.0127 84.4274C61.952 85.1146 63.0175 85.6101 64.1483 85.8854L101.116 94.8979C102.067 105.334 110.704 106.106 114.111 106.463C114.145 106.465 114.178 106.456 114.206 106.437C114.234 106.418 114.254 106.39 114.265 106.358C114.275 106.327 114.275 106.292 114.263 106.26C114.252 106.229 114.231 106.202 114.202 106.183C111.755 104.692 111.025 100.603 110.862 97.2738L113.606 97.9428C114.737 98.2188 115.911 98.2693 117.061 98.0914C118.211 97.9135 119.315 97.5107 120.309 96.9061C121.304 96.3014 122.169 95.5068 122.857 94.5675C123.544 93.6283 124.039 92.5628 124.315 91.432L131.748 60.9426C132.024 59.812 132.074 58.638 131.896 57.4878C131.718 56.3377 131.316 55.2338 130.711 54.2393C130.106 53.2449 129.312 52.3793 128.373 51.692C127.433 51.0047 126.368 50.5092 125.237 50.2339L75.7793 38.1765C74.6486 37.9005 73.4746 37.85 72.3244 38.0279C71.1743 38.2058 70.0704 38.6086 69.0759 39.2132C68.0814 39.8178 67.2158 40.6125 66.5286 41.5518C65.8413 42.4911 65.3458 43.5565 65.0705 44.6874V44.6874Z" fill="#E8E8E8"/>
<path d="M126.393 59.7281L105.721 54.6885C105.585 54.6553 105.448 54.7388 105.415 54.8749L104.354 59.2249C104.321 59.361 104.404 59.4983 104.54 59.5315L125.212 64.571C125.348 64.6042 125.486 64.5208 125.519 64.3846L126.579 60.0347C126.612 59.8985 126.529 59.7613 126.393 59.7281Z" fill="white"/>
<path d="M123.441 71.8357L67.432 58.1812C67.2959 58.148 67.1586 58.2315 67.1255 58.3676L66.065 62.7175C66.0318 62.8537 66.1152 62.9909 66.2514 63.0241L122.26 76.6786C122.396 76.7118 122.533 76.6283 122.567 76.4922L123.627 72.1422C123.66 72.0061 123.577 71.8689 123.441 71.8357Z" fill="#F3F3F3"/>
<path d="M120.489 83.9431L64.4809 70.2886C64.3447 70.2554 64.2075 70.3389 64.1743 70.475L63.1138 74.825C63.0806 74.9611 63.1641 75.0984 63.3002 75.1316L119.309 88.786C119.445 88.8192 119.582 88.7358 119.615 88.5996L120.676 84.2497C120.709 84.1135 120.626 83.9763 120.489 83.9431Z" fill="#F3F3F3"/>
<path d="M85.8837 8.11275L98.0387 47.1461C98.4899 48.5936 98.6515 50.1158 98.5142 51.6257C98.3769 53.1356 97.9434 54.6037 97.2386 55.946C96.5337 57.2883 95.5713 58.4787 94.4062 59.4489C93.2412 60.4192 91.8964 61.1504 90.4487 61.6008L43.1218 76.338C42.7388 89.9842 31.5727 91.6931 27.1718 92.436C27.1281 92.4418 27.0837 92.4328 27.0457 92.4105C27.0078 92.3882 26.9783 92.3538 26.9621 92.3128C26.9459 92.2719 26.9438 92.2267 26.9562 92.1844C26.9686 92.1421 26.9948 92.1052 27.0306 92.0795C30.0899 89.9404 30.7057 84.5645 30.6459 80.2227L27.132 81.3169C25.6846 81.768 24.1625 81.9295 22.6527 81.7921C21.1429 81.6548 19.6749 81.2214 18.3326 80.5166C16.9903 79.8118 15.8001 78.8494 14.8298 77.6845C13.8596 76.5195 13.1283 75.1749 12.6779 73.7272L0.522872 34.6939C0.0716908 33.2464 -0.0898738 31.7242 0.0474125 30.2143C0.184699 28.7044 0.618141 27.2363 1.32298 25.894C2.02782 24.5516 2.99025 23.3613 4.15526 22.391C5.32027 21.4207 6.66505 20.6895 8.11275 20.2391L71.4289 0.522872C72.8764 0.0716908 74.3985 -0.0898738 75.9085 0.0474125C77.4184 0.184699 78.8865 0.618141 80.2288 1.32298C81.5712 2.02782 82.7615 2.99024 83.7318 4.15526C84.7021 5.32027 85.4333 6.66504 85.8837 8.11275V8.11275Z" fill="#D2D0D0"/>
<path d="M41.1677 22.0925L7.26183 32.6371C7.12801 32.6787 7.05327 32.8209 7.09488 32.9547L8.87282 38.6716C8.91443 38.8054 9.05665 38.8802 9.19046 38.8386L43.0963 28.294C43.2301 28.2524 43.3049 28.1102 43.2633 27.9764L41.4853 22.2595C41.4437 22.1256 41.3015 22.0509 41.1677 22.0925Z" fill="white"/>
<path d="M83.9558 25.7157L12.1065 48.0901C11.9727 48.1318 11.898 48.274 11.9397 48.4078L13.7196 54.1233C13.7612 54.2571 13.9035 54.3318 14.0372 54.2901L85.8866 31.9157C86.0203 31.8741 86.095 31.7318 86.0534 31.5981L84.2735 25.8825C84.2318 25.7487 84.0896 25.674 83.9558 25.7157Z" fill="#F3F3F3"/>
<path d="M88.7755 41.2954L16.9093 63.6454C16.7755 63.687 16.7007 63.8292 16.7423 63.963L18.5203 69.6799C18.5619 69.8137 18.7041 69.8885 18.8379 69.8468L90.7041 47.4969C90.8379 47.4553 90.9127 47.3131 90.8711 47.1792L89.0931 41.4623C89.0515 41.3285 88.9093 41.2538 88.7755 41.2954Z" fill="#F3F3F3"/>
</svg>
