<svg width="60" height="60" viewBox="0 0 60 60" fill="none" xmlns="http://www.w3.org/2000/svg">
<path d="M15 48.0485C15 48.0485 24.3055 36.9445 30 31.25C35.6945 25.5555 38.75 26.25 41.9498 28.4698C45.1496 30.6897 49.8099 36.25 49.8099 36.25M25.5555 22.2222C25.5555 24.0631 24.0631 25.5555 22.2222 25.5555C20.3812 25.5555 18.8888 24.0631 18.8888 22.2222C18.8888 20.3812 20.3812 18.8889 22.2222 18.8889C24.0631 18.8889 25.5555 20.3812 25.5555 22.2222ZM10 42.5C9.99999 46.6421 13.3579 50 17.5 50H42.5C46.6422 50 50 46.6421 50 42.5V17.5C50 13.3579 46.6422 10 42.5 10H17.5C13.3579 10 10 13.3579 10 17.5L10 42.5Z" stroke="#131214" stroke-width="1.5" stroke-linejoin="round"/>
</svg>
