<svg width="23" height="23" viewBox="0 0 23 23" fill="none" xmlns="http://www.w3.org/2000/svg">
<path d="M21.4325 11.4031C21.434 11.1789 21.3912 10.9568 21.307 10.751C21.2228 10.5452 21.0991 10.3602 20.9435 10.2077L11.5001 1L2.05664 10.2077C1.90112 10.3602 1.77733 10.5452 1.69315 10.751C1.60896 10.9568 1.56623 11.1789 1.56766 11.4031V20.3846C1.56766 20.813 1.72865 21.224 2.01522 21.5269C2.30179 21.8297 2.69047 22 3.09572 22H19.9044C20.3097 22 20.6984 21.8297 20.9849 21.5269C21.2716 21.224 21.4325 20.813 21.4325 20.3846V11.4031Z" stroke="white" stroke-width="1.5" stroke-linecap="round" stroke-linejoin="round"/>
<path d="M11.5 21.9999V15.5383" stroke="white" stroke-width="1.5" stroke-linecap="round" stroke-linejoin="round"/>
</svg>
