<svg width="21" height="21" viewBox="0 0 21 21" fill="none" xmlns="http://www.w3.org/2000/svg">
<path d="M13.4231 20H2.46154C2.07391 20 1.70217 19.846 1.42807 19.5719C1.15398 19.2979 1 18.9261 1 18.5385V2.46154C1 2.07391 1.15398 1.70217 1.42807 1.42807C1.70217 1.15398 2.07391 1 2.46154 1H18.5385C18.9261 1 19.2979 1.15398 19.5719 1.42807C19.846 1.70217 20 2.07391 20 2.46154V13.4231L13.4231 20Z" stroke="white" stroke-width="2" stroke-linecap="round" stroke-linejoin="round"/>
<path d="M13.4231 14.1537V19.9999L20 13.423H14.1539C13.9601 13.423 13.7742 13.5 13.6371 13.637C13.5001 13.774 13.4231 13.9599 13.4231 14.1537Z" stroke="white" stroke-width="2" stroke-linecap="round" stroke-linejoin="round"/>
</svg>
