<svg width="21" height="23" viewBox="0 0 21 23" fill="none" xmlns="http://www.w3.org/2000/svg">
<path d="M17.2238 21.6667C17.9464 21.6667 18.6127 21.2769 18.967 20.6472L19.0731 20.4586C19.4477 19.7927 19.4066 18.9711 18.8579 18.4394C17.592 17.2125 14.8381 15.2083 10.3565 15.2083C5.85284 15.2083 3.23354 17.2323 2.06056 18.4574C1.55618 18.9842 1.53696 19.7653 1.89453 20.401L2.03303 20.6472" stroke="white" stroke-width="1.5" stroke-linecap="round" stroke-linejoin="round"/>
<path d="M10.5 10.1852C13.0364 10.1852 15.0926 8.12901 15.0926 5.59259C15.0926 3.05617 13.0364 1 10.5 1C7.96358 1 5.90741 3.05617 5.90741 5.59259C5.90741 8.12901 7.96358 10.1852 10.5 10.1852Z" stroke="white" stroke-width="1.5" stroke-linecap="round" stroke-linejoin="round"/>
</svg>
