<svg xmlns="http://www.w3.org/2000/svg" viewBox="0 0 64 64" id="no-results">
  <path fill="#f2f2f2" d="m61,13H3c-.55,0-1,.45-1,1v39c0,2.21,1.79,4,4,4h52c2.21,0,4-1.79,4-4V14c0-.55-.45-1-1-1Z"></path>
  <path fill="#bfbfbf" d="m58,7H6c-2.21,0-4,1.79-4,4v4h60v-4c0-2.21-1.79-4-4-4Z"></path>
  <circle cx="57" cy="11" r="1" fill="#8c8c8c"></circle>
  <circle cx="53" cy="11" r="1" fill="#8c8c8c"></circle>
  <circle cx="49" cy="11" r="1" fill="#8c8c8c"></circle>
  <path fill="#bfbfbf" d="M46 51h-28c-.55 0-1-.45-1-1s.45-1 1-1h28c.55 0 1 .45 1 1s-.45 1-1 1zM38 47h-12c-.55 0-1-.45-1-1s.45-1 1-1h12c.55 0 1 .45 1 1s-.45 1-1 1z"></path>
  <circle cx="32" cy="30" r="12" fill="#8c8c8c"></circle>
  <path fill="#595959" d="m32,33c-1.36,0-2.65.43-3.63,1.22-.43.35-.5.97-.15,1.41.34.43.97.5,1.41.15,1.25-1.01,3.49-1.01,4.75,0,.18.15.41.22.63.22.29,0,.58-.13.78-.37.35-.43.28-1.06-.15-1.41-.98-.79-2.27-1.22-3.63-1.22Z"></path>
  <circle cx="37.5" cy="28.5" r="1.5" fill="#595959"></circle>
  <circle cx="26.5" cy="28.5" r="1.5" fill="#595959"></circle>
</svg>