<svg width="40" height="40" viewBox="0 0 40 40" fill="none" xmlns="http://www.w3.org/2000/svg">
<path d="M14.9433 6.42859L16.1719 3.25716C16.3791 2.7202 16.7436 2.25833 17.2178 1.93205C17.6919 1.60577 18.2535 1.43029 18.829 1.42859H21.1719C21.7474 1.43029 22.3091 1.60577 22.7832 1.93205C23.2573 2.25833 23.6218 2.7202 23.829 3.25716L25.0576 6.42859L29.2289 8.82859L32.6003 8.3143C33.1618 8.2381 33.7332 8.3305 34.2421 8.57979C34.7506 8.82908 35.1738 9.22396 35.4575 9.7143L36.6004 11.7143C36.8932 12.2124 37.0284 12.7877 36.9875 13.3641C36.9466 13.9405 36.7321 14.491 36.3718 14.9429L34.2861 17.6V22.4L36.4289 25.0572C36.7892 25.5091 37.0038 26.0596 37.0446 26.636C37.0855 27.2124 36.9503 27.7876 36.6575 28.2857L35.5146 30.2857C35.2309 30.776 34.8078 31.1709 34.2992 31.4203C33.7903 31.6694 33.2189 31.762 32.6575 31.6857L29.2861 31.1714L25.1148 33.5714L23.8862 36.7429C23.679 37.2797 23.3145 37.7417 22.8403 38.068C22.3662 38.3943 21.8046 38.5697 21.229 38.5714H18.829C18.2535 38.5697 17.6919 38.3943 17.2178 38.068C16.7436 37.7417 16.3791 37.2797 16.1719 36.7429L14.9433 33.5714L10.7719 31.1714L7.40047 31.6857C6.83909 31.762 6.26772 31.6694 5.75898 31.4203C5.25027 31.1709 4.82712 30.776 4.54332 30.2857L3.40047 28.2857C3.10761 27.7876 2.97269 27.2124 3.01349 26.636C3.05429 26.0596 3.26892 25.5091 3.62904 25.0572L5.71475 22.4V17.6L3.57189 14.9429C3.21178 14.491 2.99715 13.9405 2.95635 13.3641C2.91555 12.7877 3.05047 12.2124 3.34332 11.7143L4.48618 9.7143C4.76998 9.22396 5.19312 8.82908 5.70184 8.57979C6.21058 8.3305 6.78195 8.2381 7.34332 8.3143L10.7148 8.82859L14.9433 6.42859ZM14.2862 20C14.2862 21.1302 14.6213 22.235 15.2492 23.1747C15.8771 24.1144 16.7696 24.8468 17.8137 25.2793C18.8579 25.7118 20.0068 25.825 21.1153 25.6045C22.2237 25.384 23.2419 24.8398 24.0411 24.0406C24.8402 23.2415 25.3845 22.2233 25.6049 21.1148C25.8254 20.0064 25.7123 18.8574 25.2798 17.8132C24.8473 16.7691 24.1149 15.8766 23.1752 15.2488C22.2354 14.6209 21.1306 14.2857 20.0005 14.2857C18.485 14.2857 17.0315 14.8878 15.9599 15.9594C14.8882 17.031 14.2862 18.4845 14.2862 20Z" stroke="#1C1516" stroke-linecap="round" stroke-linejoin="round"/>
</svg>
