<svg width="216" height="216" viewBox="0 0 216 216" fill="none" xmlns="http://www.w3.org/2000/svg">
<path d="M216 108C216 167.647 167.647 216 108 216C48.3532 216 0 167.647 0 108C0 48.3532 48.3532 0 108 0C167.647 0 216 48.3532 216 108Z" fill="#E8E8E8"/>
<path fill-rule="evenodd" clip-rule="evenodd" d="M43.7944 194.851C48.8829 185.913 55.3794 178.049 63.0111 171.689C76.2207 160.682 92.1491 154.75 108.5 154.75C124.851 154.75 140.779 160.682 153.989 171.689C161.471 177.925 167.862 185.607 172.905 194.329C154.837 207.935 132.361 216 108 216C83.9532 216 61.7418 208.141 43.7944 194.851ZM108.5 142.5C128.796 142.5 145.25 126.046 145.25 105.75C145.25 85.4535 128.796 69 108.5 69C88.2036 69 71.7501 85.4535 71.7501 105.75C71.7501 126.046 88.2036 142.5 108.5 142.5Z" fill="white"/>
</svg>
